Results
version=1
nRows=17
nColumns=24
inDegrees=yes
endheader
time	pelvis_tilt	pelvis_list	pelvis_rotation	pelvis_tx	pelvis_ty	pelvis_tz	hip_flexion_r	hip_adduction_r	hip_rotation_r	knee_angle_r	ankle_angle_r	subtalar_angle_r	mtp_angle_r	hip_flexion_l	hip_adduction_l	hip_rotation_l	knee_angle_l	ankle_angle_l	subtalar_angle_l	mtp_angle_l	lumbar_extension	lumbar_bending	lumbar_rotation
      0.88766667	     -3.42659542	     -3.61093399	     -3.01306091	     -0.19332564	      1.06403075	      0.34913507	     -1.76933307	      8.23659906	     -1.10921313	    -15.81072806	      9.46948609	     -6.46082011	      0.72219765	     26.09805222	     -1.47588549	     -3.65205192	     -7.16694287	      2.96204670	     -6.38039538	      1.42178264	      6.53691748	      8.80007408	      1.95610848
      0.89183333	     -3.38141907	     -3.64392507	     -2.99128190	     -0.18752651	      1.06344592	      0.34912840	     -1.90447770	      8.25958747	     -1.14218004	    -16.32614730	      9.55392635	     -6.39406777	      0.72848909	     25.96652031	     -1.42923947	     -3.81437314	     -6.97155097	      2.90628167	     -5.68890295	      1.25478797	      6.59596330	      8.75880399	      1.96024210
      0.89600000	     -3.39323712	     -3.67727340	     -3.02983728	     -0.18178067	      1.06279446	      0.34903153	     -1.93630709	      8.26193101	     -1.14748980	    -16.91515767	      9.51490198	     -6.41109421	      0.72976379	     25.86910005	     -1.39027310	     -3.75793147	     -6.81719706	      2.91936406	     -5.59405492	      1.23708396	      6.61674443	      8.77087031	      1.95347148
      0.90016667	     -3.34975877	     -3.67718612	     -3.00478823	     -0.17586733	      1.06225123	      0.34883909	     -2.01776986	      8.21513921	     -1.27960568	    -17.52571129	      9.47982051	     -6.21796296	      0.75121095	     25.71427311	     -1.28834058	     -3.71793462	     -6.74930543	      2.89163049	     -5.04443187	      1.10258564	      6.59985496	      8.80324410	      1.96415054
      0.90433333	     -3.34074483	     -3.69120184	     -3.06239733	     -0.17007353	      1.06167976	      0.34878905	     -2.02120810	      8.18505924	     -1.29176325	    -18.21953565	      9.43428069	     -6.22538296	      0.75466593	     25.58721857	     -1.24102663	     -3.62568520	     -6.74500507	      2.87571807	     -4.95691109	      1.08900475	      6.64020274	      8.78772427	      1.96397190
      0.90850000	     -3.32980219	     -3.67030582	     -3.06423163	     -0.16411319	      1.06113439	      0.34855994	     -2.00417632	      8.09473512	     -1.46974260	    -18.95596864	      9.33418021	     -5.96339651	      0.78638124	     25.44879975	     -1.12345801	     -3.47530364	     -6.78904234	      2.74303123	     -4.61588730	      1.00783189	      6.63501947	      8.77387002	      1.98949246
      0.91266667	     -3.29002409	     -3.66929353	     -3.13621212	     -0.15829096	      1.06065676	      0.34854419	     -1.98192087	      8.03285197	     -1.50845468	    -19.76291074	      9.26662038	     -5.94673368	      0.79250292	     25.27673132	     -1.06996769	     -3.35812918	     -6.89632645	      2.70467796	     -4.53027154	      0.99782032	      6.68666709	      8.75200930	      1.99319752
      0.91683333	     -3.25806554	     -3.63283218	     -3.13634269	     -0.15230241	      1.06018275	      0.34824684	     -1.92264730	      7.90063022	     -1.76521414	    -20.61441770	      9.05334291	     -5.52142459	      0.84186170	     25.09925552	     -0.92826132	     -3.13552145	     -7.02231434	      2.48495432	     -4.29672405	      0.93746222	      6.63648036	      8.72211199	      2.03231341
      0.92100000	     -3.19857524	     -3.61522191	     -3.22202773	     -0.14646744	      1.05978628	      0.34825143	     -1.85488265	      7.80429821	     -1.83497488	    -21.54675032	      8.96245960	     -5.48716976	      0.85153216	     24.88950340	     -0.86461406	     -3.00210046	     -7.19943976	      2.42823552	     -4.22761728	      0.92995815	      6.68753993	      8.68893871	      2.03870297
      0.92516667	     -3.13730696	     -3.53303917	     -3.24032430	     -0.14040281	      1.05943056	      0.34783474	     -1.76003668	      7.58390232	     -2.14080604	    -22.51956808	      8.67836027	     -4.80430709	      0.96604943	     24.63708551	     -0.66705250	     -2.67595773	     -7.33612010	      2.09869606	     -4.26676728	      0.85767215	      6.64936995	      8.67710933	      2.10392748
      0.92933333	     -3.10366866	     -3.48723927	     -3.29023332	     -0.13452916	      1.05902945	      0.34766735	     -1.58577722	      7.42390661	     -2.36598352	    -23.58088847	      8.40436995	     -4.51255003	      1.04353102	     24.44604203	     -0.54736760	     -2.50070995	     -7.56154225	      1.86966613	     -4.34570202	      0.82167882	      6.57401920	      8.54674496	      2.14542088
      0.93350000	     -3.04215706	     -3.40565938	     -3.34958412	     -0.12858094	      1.05872522	      0.34746392	     -1.41271354	      7.20773493	     -2.59918960	    -24.68658473	      8.02218162	     -4.12762654	      1.14162913	     24.19254569	     -0.38678333	     -2.27403554	     -7.74963092	      1.56431006	     -4.49991527	      0.78894107	      6.56504438	      8.45950465	      2.19319659
      0.93766667	     -2.99120592	     -3.29698163	     -3.45735089	     -0.12260804	      1.05845602	      0.34736240	     -1.18920776	      6.95716695	     -2.78458408	    -25.87808636	      7.80200759	     -4.02323225	      1.17648942	     23.93372018	     -0.22528203	     -2.13775798	     -7.94247865	      1.42875065	     -4.51116478	      0.78173694	      6.54555934	      8.40736789	      2.20099652
      0.94183333	     -2.92731901	     -3.21545627	     -3.49291621	     -0.11676783	      1.05819034	      0.34712613	     -0.93534364	      6.72445195	     -3.04579529	    -27.09656182	      7.09992447	     -3.43698094	      1.29727638	     23.68219585	     -0.06026800	     -1.90717366	     -8.15735227	      0.95711526	     -4.87259382	      0.75749222	      6.51293482	      8.20019497	      2.27516209
      0.94600000	     -2.83865919	     -3.05388189	     -3.59060760	     -0.11076315	      1.05804445	      0.34673027	     -0.67174953	      6.36131370	     -3.31117284	    -28.40542240	      6.63837489	     -2.92506585	      1.58027723	     23.33563249	      0.19379931	     -1.57056170	     -8.26505318	      0.42027405	     -5.71688676	      0.72371781	      6.57201918	      8.17387311	      2.35827738
      0.95016667	     -2.79680256	     -2.91569833	     -3.66417169	     -0.10492653	      1.05781660	      0.34660229	     -0.31004678	      6.05789888	     -3.54915492	    -29.79295464	      6.33012985	     -2.84388879	      1.62402642	     23.09783636	      0.38975523	     -1.47936402	     -8.49452779	      0.28809543	     -5.71715125	      0.72180815	      6.46427432	      8.01947547	      2.36757857
      0.95433333	     -2.71783427	     -2.74356734	     -3.76304526	     -0.09901835	      1.05771147	      0.34637349	      0.04181127	      5.68908545	     -3.76006568	    -31.17873669	      5.31380700	     -2.30873718	      1.87737988	     22.78209937	      0.62782096	     -1.30909453	     -8.64249165	     -0.28974230	     -6.40523380	      0.70286406	      6.53693905	      7.81504522	      2.44409006
